<svg width="56" height="56" viewBox="0 0 56 56" fill="none" xmlns="http://www.w3.org/2000/svg">
  <path d="M37.2 20.1h5.3c.5 0 .8.4.7.9l-5.9 21.9" stroke="#0B0B0B" stroke-width="1.45" stroke-linecap="round" stroke-linejoin="round"/>
  <path d="M23.2 42.9h20.2" stroke="#0B0B0B" stroke-width="1.45" stroke-linecap="round"/>
  <path d="M16.2 42.9h-4.4c-.5 0-.8-.4-.6-.9l1.6-6.1" stroke="#0B0B0B" stroke-width="1.45" stroke-linecap="round" stroke-linejoin="round"/>
  <path d="M42.9 21.9h7.4c.8 0 1.3.5 1.4 1.3l.1 8.3 3 2.1c.4.3.6.9.4 1.5l-1.6 6c-.3 1-1.3 1.8-2.2 1.8h-1" stroke="#0B0B0B" stroke-width="1.45" stroke-linecap="round" stroke-linejoin="round"/>
  <path d="M51.7 31.5h-6.1c-1 0-1.5-.8-1.3-1.8l.7-2.6c.3-1 1.3-1.8 2.2-1.8h4.4" stroke="#0B0B0B" stroke-width="1.45" stroke-linecap="round" stroke-linejoin="round"/>
  <circle cx="47.8" cy="42.9" r="3.6" stroke="#0B0B0B" stroke-width="1.45"/>
  <circle cx="20.7" cy="42.9" r="3.6" stroke="#0B0B0B" stroke-width="1.45"/>
  <circle cx="21" cy="21.9" r="12.3" stroke="#0B0B0B" stroke-width="1.45"/>
  <circle cx="21" cy="21.9" r="1.8" stroke="#0B0B0B" stroke-width="1.45"/>
  <path d="m22.4 20.5 4.8-4.8M17.5 25.4l2.2-2.2" stroke="#0B0B0B" stroke-width="1.45" stroke-linecap="round"/>
  <path d="M21 13.1v.9M21 29.8v.8M29.8 21.9h-.9M13.1 21.9h-.9" stroke="#0B0B0B" stroke-width="1.45" stroke-linecap="round"/>
  <path d="M9.6 33.3H.8M8.7 36.8H3.5M7.8 40.3H6.1" stroke="#0B0B0B" stroke-width="1.45" stroke-linecap="round"/>
</svg>
