<svg width="48" height="48" viewBox="0 0 48 48" fill="none" xmlns="http://www.w3.org/2000/svg">
  <path d="M24 2.7c1.6 0 3 1.4 4.5 1.8 1.6.4 3.4-.2 4.8.6 1.4.8 1.8 2.7 2.9 3.8 1.1 1.1 3 1.5 3.8 2.9.8 1.4.2 3.2.6 4.8.4 1.5 1.8 2.9 1.8 4.5s-1.4 3-1.8 4.5c-.4 1.6.2 3.4-.6 4.8-.8 1.4-2.7 1.8-3.8 2.9-1.1 1.1-1.5 3-2.9 3.8-1.4.8-3.2.2-4.8.6-1.5.4-2.9 1.8-4.5 1.8s-3-1.4-4.5-1.8c-1.6-.4-3.4.2-4.8-.6-1.4-.8-1.8-2.7-2.9-3.8-1.1-1.1-3-1.5-3.8-2.9-.8-1.4-.2-3.2-.6-4.8-.4-1.5-1.8-2.9-1.8-4.5s1.4-3 1.8-4.5c.4-1.6-.2-3.4.6-4.8.8-1.4 2.7-1.8 3.8-2.9 1.1-1.1 1.5-3 2.9-3.8 1.4-.8 3.2-.2 4.8-.6C21 4.1 22.4 2.7 24 2.7Z" stroke="#0B0B0B" stroke-width="1.45" stroke-linejoin="round"/>
  <circle cx="24" cy="21.2" r="12.1" stroke="#0B0B0B" stroke-width="1.45"/>
  <circle cx="24" cy="21.2" r="8.2" stroke="#0B0B0B" stroke-width="1.45"/>
  <path d="m19.9 21.2 2.8 3.1 5.6-7.1" stroke="#0B0B0B" stroke-width="1.45" stroke-linecap="round" stroke-linejoin="round"/>
  <path d="m17.2 36.7-2.3 7 4.4-.7 3 3.3 2-5.8" stroke="#0B0B0B" stroke-width="1.45" stroke-linecap="round" stroke-linejoin="round"/>
  <path d="m30.8 36.7 2.3 7-4.4-.7-3 3.3-2-5.8" stroke="#0B0B0B" stroke-width="1.45" stroke-linecap="round" stroke-linejoin="round"/>
</svg>
