<svg width="48" height="48" viewBox="0 0 48 48" fill="none" xmlns="http://www.w3.org/2000/svg">
  <path d="M25.4 9.6c-1.1 5.4-1.9 12.4-.9 19.9.7 5.4 1.6 10.7.4 17.8" stroke="#0B0B0B" stroke-width="1.45" stroke-linecap="round" stroke-linejoin="round"/>
  <path d="M33 14.1c-.4-6-5-11.2-7.1-13.2-.4-.4-1.1-.2-1.3.4-.5 1.7-1.6 4.6-3.2 6.7-2.4 3-8 13.4 2.9 20.8 0 0 6.7-2.7 8.4-11.5" stroke="#0B0B0B" stroke-width="1.45" stroke-linecap="round" stroke-linejoin="round"/>
  <path d="M5.4 25.7c-.1-.4.3-.7.7-.6 1.2.4 3.4 1.1 5.3 1.1 2.8 0 11.1 1.2 11 10.3 0 0-4.4 2.5-10.4-.3-4.7-2.2-6.2-8.2-6.6-10.5Z" stroke="#0B0B0B" stroke-width="1.45" stroke-linecap="round" stroke-linejoin="round"/>
  <path d="M42.6 25.1c.1-.4-.3-.6-.6-.5-1 .4-2.9.9-4.6.9-2.4 0-9.7 1-9.6 8.9 0 0 3.8 2.3 9 .1 4.2-2 5.5-7.4 5.8-9.4Z" stroke="#0B0B0B" stroke-width="1.45" stroke-linecap="round" stroke-linejoin="round"/>
  <path d="M10.9 29.6s10.3 2.1 14.6 11.9M35 29.1s-7.5 3.5-9.6 9.2" stroke="#0B0B0B" stroke-width="1.45" stroke-linecap="round" stroke-linejoin="round"/>
</svg>
